<svg width="64" height="64" viewBox="0 0 64 64" fill="none" xmlns="http://www.w3.org/2000/svg">
  <defs>
    <linearGradient id="bgGrad" x1="0%" y1="0%" x2="100%" y2="100%">
      <stop offset="0%" style="stop-color:#0967D2;stop-opacity:1" />
      <stop offset="100%" style="stop-color:#1E40AF;stop-opacity:1" />
    </linearGradient>
    <linearGradient id="leafGrad" x1="0%" y1="0%" x2="100%" y2="100%">
      <stop offset="0%" style="stop-color:#10B981;stop-opacity:1" />
      <stop offset="100%" style="stop-color:#059669;stop-opacity:1" />
    </linearGradient>
  </defs>

  <!-- Fond circulaire avec dégradé bleu -->
  <circle cx="32" cy="32" r="31" fill="url(#bgGrad)" />
  <circle cx="32" cy="32" r="29" fill="none" stroke="rgba(255,255,255,0.2)" stroke-width="1.5"/>

  <!-- Feuille / domaine stylisé (identique au Logo.jsx) -->
  <path d="M38 18C20 22 14 34 14 46C14 46 19 37 30 33C30 41 32 46 32 46C32 46 46 36 46 24C46 17 38 18 38 18Z"
        fill="url(#leafGrad)" />
  <path d="M26 6C16 6 8 14 8 24C8 34 16 42 26 42C36 42 44 34 44 24C44 14 36 6 26 6ZM26 38C18.27 38 12 31.73 12 24C12 16.27 18.27 10 26 10C33.73 10 40 16.27 40 24C40 31.73 33.73 38 26 38Z"
        fill="rgba(255,255,255,0.25)" />

  <!-- Lettre "D" pour Domaines au centre -->
  <text x="32" y="42" text-anchor="middle" font-size="20" font-weight="bold"
        font-family="Arial, sans-serif" fill="white" opacity="0.0">D</text>
</svg>
