<svg width="32" height="32" viewBox="0 0 32 32" fill="none" xmlns="http://www.w3.org/2000/svg">
  <defs>
    <linearGradient id="faviconGradient" x1="0%" y1="0%" x2="100%" y2="100%">
      <stop offset="0%" style="stop-color:#0967D2;stop-opacity:1" />
      <stop offset="100%" style="stop-color:#1E40AF;stop-opacity:1" />
    </linearGradient>
  </defs>
  
  <!-- Fond circulaire -->
  <circle cx="16" cy="16" r="15" fill="url(#faviconGradient)" stroke="#E5E7EB" stroke-width="1"/>
  
  <!-- Icône de carte simplifiée -->
  <rect x="8" y="10" width="16" height="12" rx="2" fill="white" fill-opacity="0.9" stroke="#0967D2" stroke-width="1"/>
  
  <!-- Zone protégée -->
  <path d="M10 12 Q12 11 14 12 Q16 11 18 12 Q19 13 18 15 Q16 16 14 15 Q12 16 10 15 Q9 13 10 12 Z" 
        fill="#10B981" fill-opacity="0.8" stroke="#10B981" stroke-width="1"/>
  
  <!-- Point de localisation -->
  <circle cx="14" cy="14" r="1.5" fill="#EF4444" stroke="white" stroke-width="0.5"/>
  
  <!-- Étoile de protection -->
  <g transform="translate(22, 8)">
    <path d="M0,-3 L0.8,-0.8 L3,0 L0.8,0.8 L0,3 L-0.8,0.8 L-3,0 L-0.8,-0.8 Z" 
          fill="#F59E0B" stroke="white" stroke-width="0.2"/>
  </g>
</svg>








